<?xml version="1.0" encoding="utf-8"?>
<!-- Generator: Adobe Illustrator 16.0.0, SVG Export Plug-In . SVG Version: 6.00 Build 0)  -->
<!DOCTYPE svg PUBLIC "-//W3C//DTD SVG 1.0//EN" "http://www.w3.org/TR/2001/REC-SVG-20010904/DTD/svg10.dtd">
<svg version="1.0" id="Capa_1" xmlns="http://www.w3.org/2000/svg" xmlns:xlink="http://www.w3.org/1999/xlink" x="0px" y="0px"
	 width="1200px" height="1199.999px" viewBox="0 0 1200 1199.999" enable-background="new 0 0 1200 1199.999" xml:space="preserve">
<g>
	<path d="M574.643,180.733c14.604-29.592,38.503-29.592,53.107,0l100.636,203.909c14.604,29.592,53.273,57.687,85.931,62.432
		l225.027,32.699c32.656,4.746,40.042,27.474,16.411,50.509L892.923,689.003c-23.631,23.034-38.4,68.492-32.822,101.018
		l38.439,224.117c5.578,32.525-13.756,46.572-42.966,31.216l-201.27-105.814c-29.21-15.356-77.007-15.356-106.216,0
		l-201.271,105.814c-29.209,15.356-48.543,1.31-42.965-31.216l38.439-224.117c5.578-32.525-9.191-77.983-32.822-101.018
		L146.64,530.282c-23.631-23.035-16.245-45.764,16.411-50.509l225.027-32.699c32.656-4.745,71.325-32.84,85.93-62.432
		L574.643,180.733z"/>
</g>
</svg>
